#!OML:ASF H:\MichaelJackson\Top Level 1\Subject 1\Session 1\male.ASF
:FULLY-SPECIFIED
:DEGREES
604
root 27.4078 16.7738 -22.8806 -168.89 -0.667633 -181.521
lowerback 0.286642 -0.791148 -1.62383
upperback 0.613001 -1.13902 -2.61838
thorax 0.444464 -0.610092 -1.77374
lowerneck -10.7927 -3.52309 -1.57007
upperneck 9.78527 -4.89781 3.77529
head 4.8375 -2.19561 1.06619
rclavicle 5.96354e-015 2.14687e-014
rhumerus -48.5084 4.01922 -95.012
rradius 57.6148
rwrist 32.3138
rhand -50.9395 -36.0433
rfingers 7.12502
rthumb -23.4906 -424.629
lclavicle 5.96354e-015 2.14687e-014
lhumerus -22.58 -15.4783 76.156
lradius 102.373
lwrist -14.4515
lhand -42.073 11.8471
lfingers 7.12502
lthumb -14.9655 41.2864
rfemur -54.9057 -6.03657 15.8231
rtibia 78.6362
rfoot 31.5981 5.70276
rtoes 57.5551
lfemur -27.963 17.9676 -28.6207
ltibia 41.0242
lfoot -8.50937 -23.4917
ltoes 47.7463
605
root 27.4046 16.7769 -22.8222 -168.854 -0.474097 -181.576
lowerback 0.104512 -0.763673 -1.70275
upperback 0.63102 -1.10238 -2.7279
thorax 0.565001 -0.595236 -1.84538
lowerneck -10.7998 -3.49158 -1.54163
upperneck 9.76977 -4.8625 3.80652
head 4.83309 -2.17507 1.07396
rclavicle 7.95139e-015 -2.38542e-015
rhumerus -49.1096 4.39012 -95.3243
rradius 57.3421
rwrist 31.7886
rhand -50.5274 -36.3038
rfingers 7.12502
rthumb -23.0952 -424.94
lclavicle 7.95139e-015 -2.38542e-015
lhumerus -21.3358 -14.9889 75.4453
lradius 102.622
lwrist -15.4178
lhand -43.3463 10.7282
lfingers 7.12502
lthumb -16.1919 40.072
rfemur -54.4487 -5.7783 15.6775
rtibia 79.2996
rfoot 31.7742 5.67812
rtoes 58.2261
lfemur -28.2269 17.9426 -28.7562
ltibia 40.9963
lfoot -8.19165 -23.4099
ltoes 47.9329
606
root 27.4026 16.7795 -22.7649 -168.826 -0.323996 -181.644
lowerback -0.0808405 -0.742795 -1.80578
upperback 0.649473 -1.07402 -2.83193
thorax 0.688223 -0.584822 -1.8979
lowerneck -10.8019 -3.45852 -1.50981
upperneck 9.77064 -4.82553 3.83527
head 4.83272 -2.15341 1.08053
rclavicle 3.97569e-016 -3.97569e-014
rhumerus -49.7053 4.87896 -95.7118
rradius 57.0671
rwrist 31.1425
rhand -49.9877 -36.3468
rfingers 7.12502
rthumb -22.5773 -425.047
lclavicle 3.97569e-016 -3.97569e-014
lhumerus -20.1743 -14.5156 74.7931
lradius 102.773
lwrist -16.3805
lhand -44.6157 9.51719
lfingers 7.12502
lthumb -17.4139 38.7572
rfemur -53.9138 -5.59283 15.5518
rtibia 79.8769
rfoot 31.9452 5.70553
rtoes 58.6326
lfemur -28.4403 17.9512 -28.9009
ltibia 40.8729
lfoot -7.78148 -23.3767
ltoes 48.1386
607
root 27.4018 16.7812 -22.7092 -168.773 -0.180454 -181.75
lowerback -0.310918 -0.724959 -1.96629
upperback 0.657696 -1.0482 -2.93708
thorax 0.826998 -0.576571 -1.91999
lowerneck -10.7995 -3.41905 -1.47524
upperneck 9.78997 -4.77973 3.85598
head 4.83682 -2.12751 1.0848
rclavicle -2.22639e-014 -5.56597e-014
rhumerus -50.2952 5.498 -96.1896
rradius 56.7921
rwrist 30.2717
rhand -49.3545 -36.114
rfingers 7.12502
rthumb -21.9695 -424.886
lclavicle -2.22639e-014 -5.56597e-014
lhumerus -19.1191 -14.0509 74.1906
lradius 102.839
lwrist -17.3099
lhand -45.8342 8.21417
lfingers 7.12502
lthumb -18.5862 37.3463
rfemur -53.3535 -5.45881 15.4185
rtibia 80.3884
rfoot 32.1052 5.80855
rtoes 58.7907
lfemur -28.6916 18.0134 -29.0976
ltibia 40.7662
lfoot -7.32552 -23.406
ltoes 48.3873
608
root 27.4003 16.8081 -22.6541 -168.706 -0.0603834 -181.874
lowerback -0.552461 -0.713354 -2.15674
upperback 0.653407 -1.02978 -3.03924
thorax 0.959787 -0.57258 -1.92233
lowerneck -10.792 -3.37649 -1.44309
upperneck 9.82707 -4.72904 3.87093
head 4.84532 -2.09936 1.08803
rclavicle 2.34566e-014 5.88403e-014
rhumerus -50.8764 6.22382 -96.7536
rradius 56.525
rwrist 29.0785
rhand -48.6544 -35.5308
rfingers 7.12502
rthumb -21.2971 -424.381
lclavicle 2.34566e-014 5.88403e-014
lhumerus -18.1867 -13.6101 73.6324
lradius 102.845
lwrist -18.1579
lhand -46.9496 6.81081
lfingers 7.12502
lthumb -19.6589 35.8368
rfemur -52.6167 -5.38284 15.3014
rtibia 80.6806
rfoot 32.2524 5.95534
rtoes 58.7067
lfemur -28.9147 18.1186 -29.3198
ltibia 40.6111
lfoot -6.81111 -23.5011
ltoes 48.652
609
root 27.4019 16.8086 -22.5985 -168.628 0.0386635 -181.98
lowerback -0.797151 -0.711045 -2.33717
upperback 0.63973 -1.02247 -3.13169
thorax 1.08451 -0.574055 -1.92047
lowerneck -10.78 -3.32619 -1.40831
upperneck 9.87732 -4.66764 3.87816
head 4.8566 -2.06615 1.08926
rclavicle 3.97569e-015 4.05521e-014
rhumerus -51.4389 7.04031 -97.4011
rradius 56.2694
rwrist 27.5513
rhand -47.8735 -34.6646
rfingers 7.12502
rthumb -20.5468 -423.597
lclavicle 3.97569e-015 4.05521e-014
lhumerus -17.3889 -13.1889 73.1038
lradius 102.807
lwrist -18.8966
lhand -47.9619 5.31678
lfingers 7.12502
lthumb -20.6318 34.2402
rfemur -51.974 -5.34546 15.2397
rtibia 80.9986
rfoot 32.3775 6.0897
rtoes 58.5435
lfemur -29.2371 18.2527 -29.5205
ltibia 40.5537
lfoot -6.24084 -23.6521
ltoes 48.9634
610
root 27.4043 16.8081 -22.5425 -168.57 0.118383 -182.08
lowerback -1.01101 -0.716886 -2.50727
upperback 0.62206 -1.02677 -3.22181
thorax 1.18752 -0.581371 -1.92172
lowerneck -10.7648 -3.26976 -1.37084
upperneck 9.94157 -4.59782 3.87875
head 4.87125 -2.02885 1.08861
rclavicle -9.34288e-015 3.33958e-014
rhumerus -51.9789 7.91246 -98.1153
rradius 56.0318
rwrist 25.6969
rhand -46.9663 -33.5516
rfingers 7.12502
rthumb -19.6749 -422.576
lclavicle -9.34288e-015 3.33958e-014
lhumerus -16.7357 -12.8028 72.5993
lradius 102.737
lwrist -19.4897
lhand -48.8592 3.73837
lfingers 7.12502
lthumb -21.4938 32.5659
rfemur -51.2572 -5.35268 15.2186
rtibia 81.2023
rfoot 32.4394 6.26857
rtoes 58.3118
lfemur -29.56 18.3972 -29.6995
ltibia 40.5274
lfoot -5.62218 -23.8406
ltoes 49.3175
611
root 27.4073 16.8071 -22.4857 -168.556 0.174242 -182.118
lowerback -1.15861 -0.728996 -2.60836
upperback 0.606695 -1.04131 -3.29785
thorax 1.25465 -0.592508 -1.9463
lowerneck -10.7491 -3.20552 -1.32802
upperneck 10.0165 -4.51766 3.87312
head 4.88859 -1.98644 1.08592
rclavicle 7.95139e-016 3.02153e-014
rhumerus -52.4903 8.80521 -98.8737
rradius 55.8187
rwrist 23.5642
rhand -45.8956 -32.2647
rfingers 7.12502
rthumb -18.6452 -421.391
lclavicle 7.95139e-016 3.02153e-014
lhumerus -16.2265 -12.4566 72.1112
lradius 102.643
lwrist -19.9385
lhand -49.6486 2.11231
lfingers 7.12502
lthumb -22.2518 30.8513
rfemur -50.4354 -5.38313 15.299
rtibia 81.3159
rfoot 32.3608 6.49045
rtoes 58.0187
lfemur -29.8997 18.5327 -29.7823
ltibia 40.6456
lfoot -5.04592 -24.0517
ltoes 49.71
612
root 27.411 16.8057 -22.4286 -168.611 0.202221 -182.085
lowerback -1.22253 -0.745493 -2.62542
upperback 0.602559 -1.06448 -3.35884
thorax 1.28506 -0.606275 -2.00129
lowerneck -10.7351 -3.13839 -1.28169
upperneck 10.0963 -4.43371 3.86358
head 4.90748 -1.94215 1.08171
rclavicle -9.74045e-015 4.21423e-014
rhumerus -52.9672 9.68226 -99.6459
rradius 55.6325
rwrist 21.2772
rhand -44.6071 -30.9348
rfingers 7.12502
rthumb -17.4055 -420.176
lclavicle -9.74045e-015 4.21423e-014
lhumerus -15.8552 -12.1614 71.6374
lradius 102.521
lwrist -20.2442
lhand -50.3517 0.448441
lfingers 7.12502
lthumb -22.9267 29.1053
rfemur -49.4729 -5.43533 15.4945
rtibia 81.3019
rfoot 32.1249 6.77802
rtoes 57.6548
lfemur -30.1722 18.6433 -29.7433
ltibia 40.7872
lfoot -4.46395 -24.2526
ltoes 50.1152
613
root 27.4152 16.8034 -22.3697 -168.735 0.232428 -181.956
lowerback -1.18407 -0.953925 -2.53742
upperback 0.592625 -1.03274 -3.40105
thorax 1.2573 -0.455797 -2.08982
lowerneck -10.7197 -3.07312 -1.23147
upperneck 10.1727 -4.35202 3.84765
head 4.92497 -1.89931 1.07476
rclavicle -3.37934e-015 2.38542e-014
rhumerus -53.4052 10.5138 -100.396
rradius 55.4704
rwrist 18.9823
rhand -43.0441 -29.7156
rfingers 7.12502
rthumb -15.9008 -419.083
lclavicle -3.37934e-015 2.38542e-014
lhumerus -15.6058 -11.9248 71.1852
lradius 102.364
lwrist -20.4424
lhand -50.9379 -1.18419
lfingers 7.12502
lthumb -23.4891 27.4018
rfemur -48.3883 -5.47515 15.8281
rtibia 81.1659
rfoot 31.7111 7.14394
rtoes 57.1376
lfemur -30.3814 18.7264 -29.5625
ltibia 40.9467
lfoot -3.90463 -24.3983
ltoes 50.5113
614
root 27.4194 16.8021 -22.3118 -168.865 0.26527 -181.825
lowerback -1.1571 -0.956066 -2.44188
upperback 0.600587 -1.03615 -3.44351
thorax 1.2477 -0.455849 -2.18681
lowerneck -10.7101 -3.01261 -1.18458
upperneck 10.2419 -4.27637 3.8337
head 4.94154 -1.85954 1.06847
rclavicle -1.72943e-014 8.74653e-015
rhumerus -53.7877 11.2882 -101.093
rradius 55.3225
rwrist 16.8055
rhand -41.1824 -28.718
rfingers 7.12502
rthumb -14.1074 -418.219
lclavicle -1.72943e-014 8.74653e-015
lhumerus -15.4478 -11.745 70.7626
lradius 102.153
lwrist -20.5686
lhand -51.5238 -2.76932
lfingers 7.12502
lthumb -24.051 25.7436
rfemur -47.2751 -5.54126 16.1851
rtibia 80.9285
rfoot 31.1592 7.45689
rtoes 57.0051
lfemur -30.5704 18.7668 -29.3666
ltibia 41.1042
lfoot -3.373 -24.4945
ltoes 50.8959
615
root 27.4236 16.801 -22.2545 -169.004 0.315787 -181.694
lowerback -1.14081 -0.945813 -2.34797
upperback 0.617623 -1.022 -3.48634
thorax 1.25381 -0.44718 -2.2832
lowerneck -10.7001 -2.95798 -1.13493
upperneck 10.2915 -4.2083 3.81555
head 4.95206 -1.82413 1.05994
rclavicle 1.76918e-014 6.2816e-014
rhumerus -54.1094 12.0072 -101.72
rradius 55.1743
rwrist 14.855
rhand -39.0161 -27.9901
rfingers 7.12502
rthumb -12.0192 -417.625
lclavicle 1.76918e-014 6.2816e-014
lhumerus -15.3632 -11.6155 70.3768
lradius 101.871
lwrist -20.6485
lhand -52.0088 -4.25649
lfingers 7.12502
lthumb -24.5159 24.1942
rfemur -46.1244 -5.62775 16.562
rtibia 80.5971
rfoot 30.4389 7.79312
rtoes 56.9242
lfemur -30.7366 18.7713 -29.1644
ltibia 41.2571
lfoot -2.88943 -24.5241
ltoes 51.2558
616
root 27.4276 16.7998 -22.1975 -169.137 0.402117 -181.579
lowerback -1.14451 -0.914096 -2.27456
upperback 0.636456 -0.977146 -3.53409
thorax 1.27414 -0.423054 -2.37288
lowerneck -10.6727 -2.90113 -1.04703
upperneck 10.2879 -4.13803 3.7616
head 4.94158 -1.78998 1.03476
rclavicle -9.54166e-015 -1.74931e-014
rhumerus -54.3712 12.6711 -102.268
rradius 55.0101
rwrist 13.2126
rhand -36.5665 -27.5436
rfingers 7.12502
rthumb -9.65638 -417.302
lclavicle -9.54166e-015 -1.74931e-014
lhumerus -15.3341 -11.5438 70.0381
lradius 101.503
lwrist -20.6937
lhand -52.3974 -5.60965
lfingers 7.12502
lthumb -24.8884 22.7901
rfemur -44.9687 -5.72924 16.9378
rtibia 80.1786
rfoot 29.5482 8.09828
rtoes 57.0928
lfemur -30.9005 18.7478 -28.985
ltibia 41.3991
lfoot -2.46148 -24.479
ltoes 51.5616
